HIERARCHY
ROOT hip
{
  OFFSET 0 0 0
  CHANNELS 6 Xposition Yposition Zposition Zrotation Yrotation Xrotation
  JOINT abdomen
  {
    OFFSET 0 20.6881 -0.73152
    CHANNELS 3 Zrotation Xrotation Yrotation
    JOINT chest
    {
      OFFSET 0 11.7043 -0.48768
      CHANNELS 3 Zrotation Xrotation Yrotation
      JOINT neck
      {
        OFFSET 0 22.1894 -2.19456
        CHANNELS 3 Zrotation Xrotation Yrotation
        JOINT head
        {
          OFFSET -0.24384 7.07133 1.2192
          CHANNELS 3 Zrotation Xrotation Yrotation
          JOINT leftEye
          {
            OFFSET 4.14528 8.04674 8.04672
            CHANNELS 3 Zrotation Xrotation Yrotation
            End Site
            {
              OFFSET 1 0 0
            }
          }
          JOINT rightEye
          {
            OFFSET -3.6576 8.04674 8.04672
            CHANNELS 3 Zrotation Xrotation Yrotation
            End Site
            {
              OFFSET 1 0 0
            }
          }
        }
      }
      JOINT rCollar
      {
        OFFSET -2.68224 19.2634 -4.8768
        CHANNELS 3 Zrotation Xrotation Yrotation
        JOINT rShldr
        {
          OFFSET -8.77824 -1.95073 1.46304
          CHANNELS 3 Zrotation Xrotation Yrotation
          JOINT rForeArm
          {
            OFFSET -28.1742 -1.7115 0.48768
            CHANNELS 3 Zrotation Xrotation Yrotation
            JOINT rHand
            {
              OFFSET -22.5879 0.773209 7.07136
              CHANNELS 3 Zrotation Xrotation Yrotation
              JOINT rThumb1
              {
                OFFSET -1.2192 -0.487915 3.41376
                CHANNELS 3 Zrotation Xrotation Yrotation
                JOINT rThumb2
                {
                  OFFSET -3.37035 -0.52449 3.41376
                  CHANNELS 3 Zrotation Xrotation Yrotation
                  End Site
                  {
                    OFFSET -1.78271 -1.18214 1.43049
                  }
                }
              }
              JOINT rIndex1
              {
                OFFSET -7.75947 0.938293 5.60832
                CHANNELS 3 Zrotation Xrotation Yrotation
                JOINT rIndex2
                {
                  OFFSET -2.54057 -0.884171 1.56538
                  CHANNELS 3 Zrotation Xrotation Yrotation
                  End Site
                  {
                    OFFSET -1.62519 -0.234802 1.16502
                  }
                }
              }
              JOINT rMid1
              {
                OFFSET -8.24714 1.18213 3.41376
                CHANNELS 3 Zrotation Xrotation Yrotation
                JOINT rMid2
                {
                  OFFSET -3.10165 -0.590103 1.0647
                  CHANNELS 3 Zrotation Xrotation Yrotation
                  End Site
                  {
                    OFFSET -2.48547 -0.328903 0.83742
                  }
                }
              }
              JOINT rRing1
              {
                OFFSET -8.82822 0.546677 1.51678
                CHANNELS 3 Zrotation Xrotation Yrotation
                JOINT rRing2
                {
                  OFFSET -2.60934 -0.819778 -0.0198488
                  CHANNELS 3 Zrotation Xrotation Yrotation
                  End Site
                  {
                    OFFSET -2.33842 -0.294052 0.168128
                  }
                }
              }
              JOINT rPinky1
              {
                OFFSET -8.27202 -0.0477905 -0.4584
                CHANNELS 3 Zrotation Xrotation Yrotation
                JOINT rPinky2
                {
                  OFFSET -1.82734 -0.647385 -0.700984
                  CHANNELS 3 Zrotation Xrotation Yrotation
                  End Site
                  {
                    OFFSET -1.69225 -0.51767 -0.607171
                  }
                }
              }
            }
          }
        }
      }
      JOINT lCollar
      {
        OFFSET 2.68224 19.2634 -4.8768
        CHANNELS 3 Zrotation Xrotation Yrotation
        JOINT lShldr
        {
          OFFSET 8.77824 -1.95073 1.46304
          CHANNELS 3 Zrotation Xrotation Yrotation
          JOINT lForeArm
          {
            OFFSET 28.1742 -1.7115 0.48768
            CHANNELS 3 Zrotation Xrotation Yrotation
            JOINT lHand
            {
              OFFSET 22.5879 0.773209 7.07136
              CHANNELS 3 Zrotation Xrotation Yrotation
              JOINT lThumb1
              {
                OFFSET 1.2192 -0.487915 3.41376
                CHANNELS 3 Zrotation Xrotation Yrotation
                JOINT lThumb2
                {
                  OFFSET 3.37035 -0.52449 3.41376
                  CHANNELS 3 Zrotation Xrotation Yrotation
                  End Site
                  {
                    OFFSET 1.78271 -1.18214 1.43049
                  }
                }
              }
              JOINT lIndex1
              {
                OFFSET 7.75947 0.938293 5.60832
                CHANNELS 3 Zrotation Xrotation Yrotation
                JOINT lIndex2
                {
                  OFFSET 2.54057 -0.884171 1.56538
                  CHANNELS 3 Zrotation Xrotation Yrotation
                  End Site
                  {
                    OFFSET 1.62519 -0.234802 1.16502
                  }
                }
              }
              JOINT lMid1
              {
                OFFSET 8.24714 1.18213 3.41376
                CHANNELS 3 Zrotation Xrotation Yrotation
                JOINT lMid2
                {
                  OFFSET 3.10165 -0.590103 1.0647
                  CHANNELS 3 Zrotation Xrotation Yrotation
                  End Site
                  {
                    OFFSET 2.48547 -0.328903 0.83742
                  }
                }
              }
              JOINT lRing1
              {
                OFFSET 8.82822 0.546677 1.51678
                CHANNELS 3 Zrotation Xrotation Yrotation
                JOINT lRing2
                {
                  OFFSET 2.60934 -0.819778 -0.0198488
                  CHANNELS 3 Zrotation Xrotation Yrotation
                  End Site
                  {
                    OFFSET 2.33842 -0.294052 0.168128
                  }
                }
              }
              JOINT lPinky1
              {
                OFFSET 8.27202 -0.0477905 -0.4584
                CHANNELS 3 Zrotation Xrotation Yrotation
                JOINT lPinky2
                {
                  OFFSET 1.82734 -0.647385 -0.700984
                  CHANNELS 3 Zrotation Xrotation Yrotation
                  End Site
                  {
                    OFFSET 1.69225 -0.51767 -0.607171
                  }
                }
              }
            }
          }
        }
      }
    }
  }
  JOINT rButtock
  {
    OFFSET -8.77824 4.35084 1.2192
    CHANNELS 3 Zrotation Xrotation Yrotation
    JOINT rThigh
    {
      OFFSET 0 -1.70687 -2.19456
      CHANNELS 3 Zrotation Xrotation Yrotation
      JOINT rShin
      {
        OFFSET 0 -36.8199 0.73152
        CHANNELS 3 Zrotation Xrotation Yrotation
        JOINT rFoot
        {
          OFFSET 0.73152 -45.1104 -5.12064
          CHANNELS 3 Zrotation Xrotation Yrotation
          End Site
          {
            OFFSET -1.1221 -3.69964 12.103
          }
        }
      }
    }
  }
  JOINT lButtock
  {
    OFFSET 8.77824 4.35084 1.2192
    CHANNELS 3 Zrotation Xrotation Yrotation
    JOINT lThigh
    {
      OFFSET 0 -1.70687 -2.19456
      CHANNELS 3 Zrotation Xrotation Yrotation
      JOINT lShin
      {
        OFFSET 0 -36.8199 0.73152
        CHANNELS 3 Zrotation Xrotation Yrotation
        JOINT lFoot
        {
          OFFSET -0.73152 -45.1104 -5.12064
          CHANNELS 3 Zrotation Xrotation Yrotation
          End Site
          {
            OFFSET 1.1221 -3.69964 12.103
          }
        }
      }
    }
  }
}
MOTION
Frames:	6
Frame Time:	0.03333
-0.23070000000000002 67.9503 -0.29710000000000003 179.709454 35.642038 -174.060644 -8.77995 7.166028 -50.73832 8.807848 0.026556 37.609505 -15.336285 31.94884 -69.882716 37.800677 3.553668 14.379261 0.00013 0.0 0.001341 0.000536 -0.0 -0.002437 -153.049891 10.023299 158.667715 -57.566929 19.168718 27.883023 -170.118327 16.799379 -142.614682 -5.635084 19.599793 0.538513 -4.035583 3.931293 0.75471 11.568922 -14.476253 -5.953939 -152.464321 -19.225792 121.4751 -17.15936 41.080427 7.116787 -145.288825 29.524861 132.693242 179.600231 -49.525742 140.715209 -0.005999 3.473698 1.092783 10.825422 -13.802571 -1.722597 -151.766295 35.621284 -147.264991 -147.732078 10.938677 -141.608896 150.168467 21.535446 -155.275899 -122.675621 -7.119956 -153.540775 92.559228 34.443012 -69.893852 -37.373672 -57.540658 -26.410363 -4.530709 -4.514174 0.52075 138.356944 -41.296161 -121.476913 148.886293 -12.609793 -120.244644 -144.838613 -67.060836 -87.157483 82.839968 61.112282 -74.532451 3.090232 17.373612 -3.494993 145.120961 0.186141 179.185063 -11.909902 29.602212 5.64301 85.899167 -50.515473 84.269936 2.099958 -12.879684 5.697962 179.999346 75.749299 0.000675 166.029533 6.910109 -88.258839 -71.745671 1.14627 118.653695 50.577425 -27.248318 -16.203035 179.998411 75.749299 0.001402 -154.809393 81.986023 62.745401 36.847141 3.658256 -91.512443 -176.816067 -7.279637 -55.109238
-0.2203 67.9495 -0.2654 179.770654 35.664435 -173.966732 -8.115812 5.956598 -81.305298 6.375803 4.089772 68.005577 -14.101136 38.069718 -106.774632 36.43965 24.938738 44.861182 0.000172 -0.0 -0.00243 0.000172 -0.0 -0.00243 -29.827034 58.18467 32.232199 -65.184205 32.23374 111.315864 76.288993 37.89742 -118.668299 -173.360616 32.948622 143.781016 -121.364872 30.329853 71.95799 -135.061578 -12.913 70.602591 -0.327201 0.5299 0.186873 178.203339 -38.254361 104.628353 -36.914531 52.188975 30.653014 -83.146542 64.250256 75.294939 -145.114733 -0.356368 -179.016625 -154.380993 71.873622 169.609112 -126.798431 -26.619282 -124.51203 -73.625257 -53.316871 -74.033248 155.417208 -2.951443 -161.71853 59.946977 14.733752 -1.959093 -155.901841 35.108186 126.707275 22.568784 57.625536 -10.544008 164.698774 -2.371874 -89.584947 102.651979 9.511801 -44.233395 -37.215158 -57.918011 0.643167 -7.351434 14.085309 0.937125 -173.120335 -66.297413 -137.611924 86.033092 63.968531 -77.69993 145.122752 1.975652 179.748384 -6.13146 -29.874202 13.909276 -17.87073 62.501959 -12.924398 153.496008 29.186046 146.519327 0.003632 0.000313 0.001816 -33.969588 -63.666582 -61.793799 -70.493513 50.292186 -15.213247 17.958626 -15.205871 108.679959 179.988113 75.749955 0.008133 -147.953007 80.10725 -180.0 -31.825086 -38.577067 -107.027329 -48.188038 23.290129 -65.511294
-0.2258 67.9491 -0.2474 179.876687 35.685692 -173.859693 -8.07465 4.871819 -106.85995 2.976326 6.142967 93.673131 7.891004 35.85174 115.470786 -33.210353 22.729896 -168.9698 -0.00087 -0.0 0.004075 0.004365 0.0 0.002228 -41.243186 -86.118555 -62.793939 69.578463 46.432743 -76.345825 -19.595358 34.11703 52.318599 -1.073404 5.386847 0.189493 -179.372086 -16.877643 89.360418 -0.631309 -58.106689 3.434693 -148.887096 -12.608933 120.245989 0.332734 19.463374 -5.393861 -39.289341 53.366502 32.876676 29.682057 -60.154989 6.573122 -145.065414 -3.223468 -178.112085 2.918498 -43.851323 -17.909622 -12.374978 -24.158079 -11.757465 -147.413024 13.481308 -144.009393 -3.622228 -61.421913 12.83034 79.923867 -28.745014 119.585557 -9.868564 -6.192482 72.885555 -165.009098 -24.517464 -142.898794 13.841421 12.832535 -3.636672 38.323457 21.491532 -39.498619 108.426368 34.160267 -91.742956 5.333582 19.176477 1.901628 0.058434 0.167709 -0.032484 4.834021 21.064195 -4.330557 0.000816 -0.018366 0.006896 -9.758915 7.249163 -0.885303 -1.135049 3.04045 -1.044096 24.297754 -41.345037 24.920403 -0.0 -0.000841 -0.001351 -36.252635 -65.393052 -180.0 -72.796936 -49.501182 -156.388063 -158.291418 2.474167 95.033265 -0.000621 4e-05 -0.00031 5.851784 6.590461 -95.601942 -42.100702 -14.27482 3.594365 -82.969577 67.455127 -166.337735
-0.22690000000000002 67.95020000000001 -0.2289 179.838577 35.716867 -173.846811 -7.918566 5.937019 -80.975384 6.377452 3.925733 67.807099 1.29968 23.826797 35.978309 -17.375437 -20.857562 -97.309833 0.000962 0.0 0.001884 0.000962 0.0 0.001884 -149.850515 22.60158 154.913517 -78.534912 35.048975 49.287275 42.887334 -10.283375 -57.450568 -179.042157 17.37588 145.521534 178.339649 -19.018747 88.989364 -2.541448 -58.156616 1.193872 -148.886855 -12.609315 120.245317 -5.496354 28.016513 -1.852192 -57.868001 59.218526 50.524788 -21.632021 46.101699 17.792786 -72.349582 72.976688 90.217074 -156.254378 -46.159318 -176.071837 12.985606 44.344585 10.764305 -150.228939 18.676544 -144.902541 157.323833 -17.489277 -164.607651 51.960603 21.952526 12.082642 -157.661993 44.572969 123.333365 18.81136 52.910817 -7.782891 7.759918 7.438423 -1.682646 137.892299 -41.375542 -114.506151 151.354219 -17.158355 -121.132531 134.23199 32.280068 -108.316995 -78.5381 -80.91866 -49.689267 -8.676982 -17.205927 1.26146 0.007586 3.473698 -1.09282 154.012895 17.300226 -169.408815 -1.13475 3.040136 -1.046464 164.496022 68.076641 149.391767 -0.001048 2.5e-05 0.001347 -34.911002 -63.338123 -32.253773 -28.919656 74.889028 -54.463045 27.063351 59.978028 70.297123 -0.000154 0.000652 -7.7e-05 5.574116 7.410974 -48.13129 -38.482095 17.458241 -19.639764 -153.943763 41.870993 -116.631969
-0.22039999999999998 67.9523 -0.20479999999999998 179.823882 35.735612 -173.824985 -10.267301 7.951153 1.007208 7.171923 -7.745893 -13.18636 -15.363034 31.793086 -69.768585 37.770362 3.5886 14.770328 0.000452 -0.0 -0.001274 0.000924 0.0 0.000349 -155.417338 -2.95144 161.718506 -53.286135 20.503645 15.924579 117.365108 40.467085 -97.781446 -63.807029 73.192089 46.164297 -171.653308 -9.336399 89.949082 -171.443698 -8.971063 90.341428 2.325838 -3.867908 -1.258707 -161.037514 -13.688658 110.176173 -15.424714 32.960934 11.297809 1.118056 6.440938 0.988475 -145.119628 0.268444 -179.211046 11.193922 13.760999 -7.379726 -152.198816 37.329872 -147.584008 -156.315107 37.807417 -146.200567 158.467526 -30.055506 -166.920182 50.855762 4.532811 23.76158 -172.378678 28.777799 135.618772 13.060048 43.298132 -4.213065 8.204299 7.847964 -1.806769 -30.567137 -40.997698 11.675892 151.68014 -17.764544 -121.237141 -0.833123 19.581555 5.424659 82.841606 61.110874 -74.531793 16.121083 40.0968 -13.14492 -0.003526 0.917636 -0.289304 61.553065 -86.805019 83.031289 110.0556 -41.782941 108.127656 20.147897 -37.241937 22.417385 0.002494 0.001218 0.002494 -36.34682 -63.172342 -0.0 67.357465 48.196983 11.606352 -163.494036 -32.748244 85.550042 -0.000269 0.001218 0.000345 5.689136 7.230234 -57.466981 -41.049334 11.573857 -16.463984 115.02311 -42.201247 173.21176
-0.22290000000000001 67.95360000000001 -0.1864 179.84324 35.778922 -173.782369 -10.185716 3.196687 180.0 -7.187125 2.879621 167.230568 8.235618 32.357945 95.398547 -34.686438 11.044532 -151.97196 -0.003436 0.0 -0.000276 0.002273 -0.0 -0.00047 4.209375 -43.443059 -8.384103 109.225265 55.430535 -67.912176 -174.925731 36.825779 102.791582 165.820355 -27.402068 141.932092 -172.400614 -10.080866 89.937442 -152.548881 3.993547 79.565077 -145.337182 -6.264493 118.678503 -166.382689 -23.46472 119.110335 89.035042 -81.393505 59.759978 91.968105 -78.379478 63.169544 0.001511 -0.018357 -0.007014 6.670064 31.041252 4.971005 -124.849677 -29.037953 -122.621326 -147.342192 13.455842 -142.451419 -4.239643 -44.742817 8.646712 86.843766 -26.498006 138.851658 -26.663298 6.204158 74.170398 -172.071952 -5.339714 -146.180638 3.030589 2.96391 -0.543067 42.038656 26.325978 -39.04926 138.76297 4.486641 -115.030579 1.421396 19.016118 4.893837 149.312371 22.338375 -135.90556 153.865068 19.912594 -138.373332 73.163519 -72.143466 90.197665 68.817991 -82.37432 94.805649 145.54362 13.245047 142.148339 -5.384609 8.253004 -0.327761 -0.0 -0.000739 -0.000227 -35.45964 -63.233727 -19.613784 56.022488 77.170253 147.36317 -153.381684 21.459656 -160.146622 -179.971137 75.749502 -0.023748 -151.8298 80.075131 151.468757 14.493019 -42.921004 100.346837 172.139296 -16.466051 -145.670507
